<svg width="22" height="24" viewBox="0 0 22 24" fill="none" xmlns="http://www.w3.org/2000/svg">
<g id="Group">
<path id="Vector" d="M8.66675 3.83333C8.66675 3.21449 8.91258 2.621 9.35017 2.18342C9.78775 1.74583 10.3812 1.5 11.0001 1.5C11.6189 1.5 12.2124 1.74583 12.65 2.18342C13.0876 2.621 13.3334 3.21449 13.3334 3.83333C14.6732 4.46687 15.8154 5.45305 16.6375 6.68618C17.4596 7.91932 17.9306 9.35292 18.0001 10.8333V14.3333C18.0879 15.0587 18.3448 15.7532 18.75 16.3611C19.1553 16.9691 19.6977 17.4733 20.3334 17.8333H1.66675C2.30251 17.4733 2.84486 16.9691 3.25013 16.3611C3.65541 15.7532 3.91228 15.0587 4.00008 14.3333V10.8333C4.06957 9.35292 4.5406 7.91932 5.36269 6.68618C6.18478 5.45305 7.32694 4.46687 8.66675 3.83333" stroke="#1A202C" stroke-width="1.5" stroke-linecap="round" stroke-linejoin="round"/>
<path id="Vector_2" d="M7.5 17.8333V18.9999C7.5 19.9282 7.86875 20.8184 8.52513 21.4748C9.1815 22.1312 10.0717 22.4999 11 22.4999C11.9283 22.4999 12.8185 22.1312 13.4749 21.4748C14.1313 20.8184 14.5 19.9282 14.5 18.9999V17.8333" stroke="#1A202C" stroke-width="1.5" stroke-linecap="round" stroke-linejoin="round"/>
</g>
</svg>
