<svg width="16" height="19" viewBox="0 0 16 19" fill="none" xmlns="http://www.w3.org/2000/svg">
<g id="Group">
<path id="Vector" d="M5.25016 11.3333L10.7502 5.83333L5.25016 11.3333ZM5.7085 6.29167H5.71766H5.7085ZM10.2918 10.875H10.301H10.2918ZM14.4168 17.75V3.08333C14.4168 2.5971 14.2237 2.13079 13.8799 1.78697C13.536 1.44315 13.0697 1.25 12.5835 1.25H3.41683C2.9306 1.25 2.46428 1.44315 2.12047 1.78697C1.77665 2.13079 1.5835 2.5971 1.5835 3.08333V17.75L4.79183 15.9167L8.00016 17.75L11.2085 15.9167L14.4168 17.75ZM6.16683 6.29167C6.16683 6.41322 6.11854 6.5298 6.03259 6.61576C5.94663 6.70171 5.83005 6.75 5.7085 6.75C5.58694 6.75 5.47036 6.70171 5.3844 6.61576C5.29845 6.5298 5.25016 6.41322 5.25016 6.29167C5.25016 6.17011 5.29845 6.05353 5.3844 5.96758C5.47036 5.88162 5.58694 5.83333 5.7085 5.83333C5.83005 5.83333 5.94663 5.88162 6.03259 5.96758C6.11854 6.05353 6.16683 6.17011 6.16683 6.29167ZM10.7502 10.875C10.7502 10.9966 10.7019 11.1131 10.6159 11.1991C10.53 11.285 10.4134 11.3333 10.2918 11.3333C10.1703 11.3333 10.0537 11.285 9.96774 11.1991C9.88178 11.1131 9.8335 10.9966 9.8335 10.875C9.8335 10.7534 9.88178 10.6369 9.96774 10.5509C10.0537 10.465 10.1703 10.4167 10.2918 10.4167C10.4134 10.4167 10.53 10.465 10.6159 10.5509C10.7019 10.6369 10.7502 10.7534 10.7502 10.875Z" stroke="#718096" stroke-width="1.5" stroke-linecap="round" stroke-linejoin="round"/>
</g>
</svg>
