<svg width="46" height="46" viewBox="0 0 46 46" fill="none" xmlns="http://www.w3.org/2000/svg">
<g id="Wave">
<path id="Vector" d="M40.7293 31.3563C39.0427 31.3563 38.2951 30.7046 37.241 29.7846C36.0718 28.7879 34.6152 27.5229 31.8743 27.5229C29.1143 27.5229 27.6768 28.7879 26.5076 29.7846C25.4535 30.7046 24.6868 31.3563 23.0002 31.3563C21.3327 31.3563 20.566 30.7046 19.5118 29.7846C18.3426 28.7879 16.886 27.5229 14.1452 27.5229C11.3852 27.5229 9.92851 28.7879 8.75934 29.7846C7.70518 30.7046 6.95766 31.3563 5.271 31.3563C4.48516 31.3563 3.8335 32.008 3.8335 32.7938C3.8335 33.5988 4.48516 34.2313 5.271 34.2313C8.031 34.2313 9.46847 32.9855 10.6376 31.9696C11.6918 31.0496 12.4585 30.3979 14.1452 30.3979C15.8318 30.3979 16.5794 31.0496 17.6335 31.9696C18.8027 32.9855 20.2593 34.2313 23.0002 34.2313C25.7602 34.2313 27.2168 32.9855 28.386 31.9696C29.4402 31.0496 30.1877 30.3979 31.8743 30.3979C33.5418 30.3979 34.3085 31.0496 35.3627 31.9696C36.5319 32.9855 37.9885 34.2313 40.7293 34.2313C41.5152 34.2313 42.1668 33.5988 42.1668 32.7938C42.1668 32.008 41.5152 31.3563 40.7293 31.3563Z" fill="#141416"/>
<path id="Vector_2" d="M40.7293 23.4605C39.0427 23.4605 38.2951 22.7897 37.241 21.8889C36.0718 20.873 34.6152 19.6272 31.8743 19.6272C29.1143 19.6272 27.6768 20.873 26.5076 21.8889C25.4535 22.7897 24.6868 23.4605 23.0002 23.4605C21.3327 23.4605 20.566 22.7897 19.5118 21.8889C18.3426 20.873 16.886 19.6272 14.1452 19.6272C11.3852 19.6272 9.92851 20.873 8.75934 21.8889C7.70518 22.7897 6.95766 23.4605 5.271 23.4605C4.48516 23.4605 3.8335 24.093 3.8335 24.898C3.8335 25.6839 4.48516 26.3355 5.271 26.3355C8.031 26.3355 9.46847 25.0705 10.6376 24.0547C11.6918 23.1539 12.4585 22.5022 14.1452 22.5022C15.8318 22.5022 16.5794 23.1539 17.6335 24.0547C18.8027 25.0705 20.2593 26.3355 23.0002 26.3355C25.7602 26.3355 27.2168 25.0705 28.386 24.0547C29.4402 23.1539 30.1877 22.5022 31.8743 22.5022C33.5418 22.5022 34.3085 23.1539 35.3627 24.0547C36.5319 25.0705 37.9885 26.3355 40.7293 26.3355C41.5152 26.3355 42.1668 25.6839 42.1668 24.898C42.1668 24.093 41.5152 23.4605 40.7293 23.4605Z" fill="#141416"/>
<path id="Vector_3" d="M5.271 18.4769C8.031 18.4769 9.46847 17.2119 10.6376 16.2152C11.6918 15.2952 12.4585 14.6436 14.1452 14.6436C15.8318 14.6436 16.5794 15.2952 17.6335 16.2152C18.8027 17.2119 20.2593 18.4769 23.0002 18.4769C25.7602 18.4769 27.2168 17.2119 28.386 16.2152C29.4402 15.2952 30.1877 14.6436 31.8743 14.6436C33.5418 14.6436 34.3085 15.2952 35.3627 16.2152C36.5318 17.2119 37.9885 18.4769 40.7293 18.4769C41.5152 18.4769 42.1668 17.8252 42.1668 17.0394C42.1668 16.2344 41.5152 15.6019 40.7293 15.6019C39.0427 15.6019 38.2951 14.9502 37.241 14.0302C36.0718 13.0144 34.6152 11.7686 31.8743 11.7686C29.1143 11.7686 27.6768 13.0144 26.5076 14.0302C25.4535 14.9502 24.6868 15.6019 23.0002 15.6019C21.3327 15.6019 20.566 14.9502 19.5118 14.0302C18.3426 13.0144 16.886 11.7686 14.1452 11.7686C11.3852 11.7686 9.92851 13.0144 8.75934 14.0302C7.70518 14.9502 6.95766 15.6019 5.271 15.6019C4.48516 15.6019 3.8335 16.2344 3.8335 17.0394C3.8335 17.8252 4.48516 18.4769 5.271 18.4769Z" fill="#141416"/>
</g>
</svg>
